<svg width="80" height="80" viewBox="0 0 80 80" fill="none" xmlns="http://www.w3.org/2000/svg">
<rect x="0.5" y="0.5" width="79" height="79" rx="39.5" fill="white"/>
<rect x="0.5" y="0.5" width="79" height="79" rx="39.5" stroke="black"/>
<g clip-path="url(#clip0_352_447)">
<g clip-path="url(#clip1_352_447)">
<path d="M47.2699 10C35.843 10 29.6837 13.6362 29.6837 16.2069V16.7241V27.43L25.1992 22.9455L25.0771 22.8234C24.4709 22.2172 20.9982 21.789 18.3044 24.4828C15.6106 27.1755 14.7178 31.9703 15.324 32.5766L15.4461 32.6986L29.6837 46.9362V64.3103C29.6837 67.4531 35.843 70 47.2699 70C58.6968 70 64.8561 67.4531 64.8561 64.3103V16.7241V16.2069C64.8561 13.6362 58.6968 10 47.2699 10Z" fill="#745A49"/>
<path d="M47.2708 10C36.7832 10 30.748 13.061 29.8242 15.5531C30.748 18.8407 36.7832 21.3793 47.2708 21.3793C57.7584 21.3793 63.7935 18.8407 64.7173 15.5531C63.7946 13.061 57.7584 10 47.2708 10Z" fill="#D1A170"/>
<path d="M26.2771 24.0238L25.1992 22.9458L25.0771 22.8238C24.4709 22.2176 20.9982 21.7893 18.3044 24.4831C15.6106 27.1758 14.7178 31.9707 15.324 32.5769L15.4461 32.6989L16.4309 33.6838C22.9833 31.7069 25.4268 27.5307 26.2771 24.0238Z" fill="#D1A170"/>
<path d="M57.6146 61.7246C57.0435 61.7246 56.5801 62.1881 56.5801 62.7591V69.2805C57.3208 69.147 58.0046 68.995 58.649 68.8305V62.7591C58.649 62.1881 58.1856 61.7246 57.6146 61.7246Z" fill="#3D3028"/>
<path d="M51.4075 58.6211C50.8365 58.6211 50.373 59.0845 50.373 59.6556V69.9259C51.0879 69.8939 51.7779 69.8514 52.442 69.7976V59.6556C52.442 59.0845 51.9786 58.6211 51.4075 58.6211Z" fill="#3D3028"/>
<path d="M47.2708 65.8623C46.6998 65.8623 46.2363 66.3258 46.2363 66.8968V69.9858C46.5808 69.9909 46.916 70.0002 47.2708 70.0002C47.6256 70.0002 47.9598 69.9909 48.3053 69.9858V66.8968C48.3053 66.3258 47.8418 65.8623 47.2708 65.8623Z" fill="#3D3028"/>
<path d="M42.097 60.6895C41.5259 60.6895 41.0625 61.1529 41.0625 61.7239V69.706C41.7266 69.7732 42.4115 69.8322 43.1315 69.8767V61.7239C43.1315 61.1529 42.668 60.6895 42.097 60.6895Z" fill="#3D3028"/>
<path d="M34.8567 53.4482C34.2857 53.4482 33.8223 53.9117 33.8223 54.4827V68.1907C34.444 68.4234 35.134 68.6365 35.8912 68.83V54.4827C35.8912 53.9117 35.4278 53.4482 34.8567 53.4482Z" fill="#3D3028"/>
<path d="M33.7988 19.2314L33.8216 29.657C33.8226 30.228 34.2861 30.6894 34.8561 30.6894C35.4281 30.6883 35.8916 30.2239 35.8906 29.6528L35.8699 19.9918C35.1126 19.7611 34.4195 19.5087 33.7988 19.2314Z" fill="#3D3028"/>
<path d="M38.957 20.7217L38.9953 36.8989C38.9963 37.4689 39.4598 37.9313 40.0298 37.9313H40.0319C40.6029 37.9303 41.0653 37.4658 41.0643 36.8948L41.027 21.0258C40.306 20.9379 39.6119 20.8386 38.957 20.7217Z" fill="#3D3028"/>
<path d="M48.3047 21.3633V26.5512C48.3047 27.1223 48.7681 27.5857 49.3392 27.5857C49.9102 27.5857 50.3737 27.1223 50.3737 26.5512V21.293C49.7064 21.3281 49.0154 21.3509 48.3047 21.3633Z" fill="#3D3028"/>
<path d="M55.5469 20.728V37.9315C55.5469 38.5025 56.0103 38.966 56.5814 38.966C57.1524 38.966 57.6158 38.5025 57.6158 37.9315V20.2832C56.9662 20.4477 56.2803 20.5977 55.5469 20.728Z" fill="#3D3028"/>
<path d="M59.6836 19.6577V29.6549C59.6836 30.2259 60.147 30.6894 60.7181 30.6894C61.2891 30.6894 61.7526 30.2259 61.7526 29.6549V18.7256C61.1474 19.0618 60.4615 19.3752 59.6836 19.6577Z" fill="#3D3028"/>
</g>
</g>
<defs>
<clipPath id="clip0_352_447">
<rect width="60" height="60" fill="white" transform="translate(10 10)"/>
</clipPath>
<clipPath id="clip1_352_447">
<rect width="60" height="60" fill="white" transform="translate(10 10)"/>
</clipPath>
</defs>
</svg>
