<svg width="80" height="80" viewBox="0 0 80 80" fill="none" xmlns="http://www.w3.org/2000/svg">
<rect x="0.5" y="0.5" width="79" height="79" rx="39.5" fill="white"/>
<rect x="0.5" y="0.5" width="79" height="79" rx="39.5" stroke="black"/>
<g clip-path="url(#clip0_367_1157)">
<path d="M55.3016 58.1199C55.3016 59.223 54.4076 60.117 53.3045 60.117H26.6768C25.5737 60.117 24.6797 59.223 24.6797 58.1199V23.5039C24.6797 22.4008 25.5737 21.5068 26.6768 21.5068H53.3045C54.4076 21.5068 55.3016 22.4008 55.3016 23.5039V58.1199Z" fill="#87CED9"/>
<path d="M53.3025 60.1173H22.6807C21.5776 60.1173 20.6836 59.2232 20.6836 58.1201V56.123H51.3055V58.1201C51.3055 59.2232 52.1995 60.1173 53.3025 60.1173Z" fill="#4398D1"/>
<path d="M33.9975 32.1582H20.6836V40.1465H33.9975V32.1582Z" fill="#FDA72F"/>
<path d="M24.2058 37.4986L22.8744 36.1672C22.6148 35.9076 22.6148 35.4855 22.8744 35.2259L24.2058 33.8945L25.1471 34.8358L24.2863 35.6966L25.1471 36.5573L24.2058 37.4986Z" fill="#FF8A3D"/>
<path d="M30.4726 37.4987L29.5312 36.5574L30.392 35.6966L29.5312 34.8358L30.4726 33.8945L31.8039 35.2259C32.0636 35.4855 32.0636 35.9076 31.8039 36.1672L30.4726 37.4987Z" fill="#FF8A3D"/>
<path d="M27.3751 33.4894L26.043 37.4834L27.3059 37.9046L28.6381 33.9106L27.3751 33.4894Z" fill="#FF8A3D"/>
<path d="M59.2937 25.501H36.6602V38.8148H59.2937V25.501Z" fill="#4398D1"/>
<path d="M59.2937 36.1523L54.6339 33.4896L49.4934 36.1523L43.3171 32.1582L36.6602 36.1523V38.8151H59.2937V36.1523Z" fill="#3269A1"/>
<path d="M51.6369 31.4926C52.556 31.4926 53.3012 30.7475 53.3012 29.8283C53.3012 28.9092 52.556 28.1641 51.6369 28.1641C50.7178 28.1641 49.9727 28.9092 49.9727 29.8283C49.9727 30.7475 50.7178 31.4926 51.6369 31.4926Z" fill="#E34B87"/>
<path d="M43.9821 42.8086H27.3398V50.7969H43.9821V42.8086Z" fill="#E34B87"/>
<path d="M31.9987 44.8057H29.3359V46.137H31.9987V44.8057Z" fill="#BF3D75"/>
<path d="M39.3233 44.8057H33.332V46.137H39.3233V44.8057Z" fill="#BF3D75"/>
<path d="M41.9876 44.8057H40.6562V46.137H41.9876V44.8057Z" fill="#BF3D75"/>
<path d="M37.3242 47.4688H29.3359V48.8001H37.3242V47.4688Z" fill="#BF3D75"/>
<path d="M41.9847 47.4688H38.6562V48.8001H41.9847V47.4688Z" fill="#BF3D75"/>
<path d="M28.0071 23.5039H26.6758V24.8353H28.0071V23.5039Z" fill="#5EB3D1"/>
<path d="M30.6673 23.5039H29.3359V24.8353H30.6673V23.5039Z" fill="#5EB3D1"/>
<path d="M33.3314 23.5039H32V24.8353H33.3314V23.5039Z" fill="#5EB3D1"/>
<path d="M34.6641 26.167H26.6758V27.4984H34.6641V26.167Z" fill="#5EB3D1"/>
<path d="M59.2927 45.4717H46.6445V53.46H59.2927V45.4717Z" fill="#E34B87"/>
<path d="M49.9759 47.4688H48.6445V48.8001H49.9759V47.4688Z" fill="#BF3D75"/>
<path d="M49.9759 50.1318H48.6445V51.4632H49.9759V50.1318Z" fill="#BF3D75"/>
<path d="M57.2959 47.4688H51.3047V48.8001H57.2959V47.4688Z" fill="#BF3D75"/>
<path d="M57.2959 50.1318H51.3047V51.4632H57.2959V50.1318Z" fill="#BF3D75"/>
<path d="M55.3002 38.8145H37.9922V40.1458H55.3002V38.8145Z" fill="#71C4D1"/>
<path d="M55.2992 53.46H47.9766V54.7913H55.2992V53.46Z" fill="#71C4D1"/>
<path d="M33.9994 33.4893V40.1462H24.6797V41.4775H35.3308V33.4893H33.9994Z" fill="#71C4D1"/>
<path d="M43.9828 44.1406V50.7976H28.6719V52.1289H45.3142V44.1406H43.9828Z" fill="#71C4D1"/>
</g>
<defs>
<clipPath id="clip0_367_1157">
<rect width="60" height="60" fill="white" transform="translate(10 10)"/>
</clipPath>
</defs>
</svg>
